<svg width="389" height="127" viewBox="0 0 389 127" fill="none" xmlns="http://www.w3.org/2000/svg">
<path d="M5.248 46V0.879997H33.92V6.256H11.776V20.4H32.64V25.776H11.776V46H5.248ZM41.123 46V0.879997H70.435V6.192H47.587V20.4H69.155V25.776H47.587V40.688H70.435V46H41.123Z" fill="white"/>
<path d="M231.64 106.512C227.373 106.512 223.661 105.573 220.504 103.696C217.389 101.819 214.979 99.152 213.272 95.696C211.565 92.24 210.712 88.1653 210.712 83.472C210.712 78.736 211.544 74.64 213.208 71.184C214.915 67.6853 217.347 65.0187 220.504 63.184C223.661 61.3067 227.373 60.368 231.64 60.368C235.949 60.368 239.683 61.3067 242.84 63.184C245.997 65.0187 248.408 67.6853 250.072 71.184C251.779 74.64 252.632 78.7147 252.632 83.408C252.632 88.1013 251.779 92.1973 250.072 95.696C248.408 99.152 245.997 101.819 242.84 103.696C239.683 105.573 235.949 106.512 231.64 106.512ZM231.64 101.136C236.163 101.136 239.683 99.6 242.2 96.528C244.717 93.456 245.976 89.0827 245.976 83.408C245.976 77.7333 244.717 73.3813 242.2 70.352C239.725 67.28 236.205 65.744 231.64 65.744C227.16 65.744 223.661 67.28 221.144 70.352C218.669 73.3813 217.432 77.7333 217.432 83.408C217.432 89.0827 218.669 93.456 221.144 96.528C223.661 99.6 227.16 101.136 231.64 101.136ZM298.231 106H290.935L283.255 91.536C282.402 90 281.378 88.9333 280.183 88.336C279.031 87.696 277.495 87.376 275.575 87.376H268.151V106H261.623V60.88H280.823C285.815 60.88 289.612 61.9893 292.215 64.208C294.86 66.4267 296.183 69.6693 296.183 73.936C296.183 77.392 295.202 80.2293 293.239 82.448C291.319 84.6667 288.567 86.0747 284.983 86.672C287.202 87.3547 289.036 89.0187 290.487 91.664L298.231 106ZM280.055 82.064C283.383 82.064 285.836 81.424 287.415 80.144C289.036 78.8213 289.847 76.7947 289.847 74.064C289.847 71.3333 289.058 69.3493 287.479 68.112C285.9 66.832 283.426 66.192 280.055 66.192H268.087V82.064H280.055ZM305.811 60.88H321.619C328.915 60.88 334.568 62.8427 338.579 66.768C342.589 70.6933 344.595 76.24 344.595 83.408C344.595 90.576 342.589 96.144 338.579 100.112C334.568 104.037 328.915 106 321.619 106H305.811V60.88ZM321.235 100.496C332.328 100.496 337.875 94.8 337.875 83.408C337.875 72.0587 332.328 66.384 321.235 66.384H312.403V100.496H321.235ZM368.345 106.512C364.846 106.512 361.625 106.043 358.681 105.104C355.779 104.165 353.283 102.779 351.193 100.944L353.561 96.08C355.779 97.872 358.062 99.1733 360.409 99.984C362.798 100.752 365.465 101.136 368.409 101.136C371.779 101.136 374.382 100.517 376.217 99.28C378.051 98 378.969 96.208 378.969 93.904C378.969 91.9413 378.115 90.4907 376.409 89.552C374.702 88.5707 371.971 87.6533 368.217 86.8C364.633 86.032 361.689 85.1573 359.385 84.176C357.081 83.1947 355.267 81.872 353.945 80.208C352.665 78.5013 352.025 76.3467 352.025 73.744C352.025 71.0987 352.707 68.7733 354.073 66.768C355.481 64.7627 357.465 63.2053 360.025 62.096C362.585 60.944 365.55 60.368 368.921 60.368C372.078 60.368 375.043 60.8587 377.817 61.84C380.633 62.7787 382.937 64.144 384.729 65.936L382.425 70.8C380.334 69.0933 378.179 67.8347 375.961 67.024C373.785 66.1707 371.459 65.744 368.985 65.744C365.742 65.744 363.182 66.4267 361.305 67.792C359.47 69.1147 358.553 70.9707 358.553 73.36C358.553 75.408 359.363 76.9653 360.985 78.032C362.606 79.056 365.209 79.9947 368.793 80.848C372.547 81.7013 375.577 82.5973 377.881 83.536C380.227 84.432 382.083 85.6907 383.449 87.312C384.857 88.8907 385.561 90.96 385.561 93.52C385.561 96.1227 384.857 98.4053 383.449 100.368C382.083 102.331 380.099 103.845 377.497 104.912C374.937 105.979 371.886 106.512 368.345 106.512Z" fill="white"/>
<path d="M207.496 4.47999H232.552L196.264 106H175.24L153.784 45.088L132.04 106H110.872L74.728 4.47999H101.656L122.68 68.848L145.432 4.47999H163.72L185.464 70L207.496 4.47999Z" fill="white"/>
</svg>
