<svg width="315" height="127" viewBox="0 0 315 127" fill="none" xmlns="http://www.w3.org/2000/svg">
<path d="M36.992 0.879997H43.52V46H36.992V25.776H11.776V46H5.248V0.879997H11.776V20.4H36.992V0.879997ZM53.998 46V0.879997H83.31V6.192H60.462V20.4H82.03V25.776H60.462V40.688H83.31V46H53.998ZM91.4355 46V0.879997H98.0275V40.496H119.916V46H91.4355ZM126.436 46V0.879997H133.028V40.496H154.916V46H126.436Z" fill="white"/>
<path d="M214.456 107.296C204.088 107.296 195.064 105.184 187.384 100.96C179.8 96.64 173.944 90.592 169.816 82.816C165.688 74.944 163.624 65.728 163.624 55.168C163.624 44.608 165.688 35.44 169.816 27.664C173.944 19.792 179.8 13.744 187.384 9.52C195.064 5.29599 204.088 3.18399 214.456 3.18399C224.824 3.18399 233.8 5.29599 241.384 9.52C249.064 13.744 254.92 19.792 258.952 27.664C263.08 35.44 265.144 44.608 265.144 55.168C265.144 65.728 263.08 74.944 258.952 82.816C254.824 90.592 248.92 96.64 241.24 100.96C233.656 105.184 224.728 107.296 214.456 107.296ZM214.456 86.992C222.136 86.992 228.136 84.304 232.456 78.928C236.776 73.456 238.936 65.536 238.936 55.168C238.936 44.8 236.728 36.928 232.312 31.552C227.992 26.176 222.04 23.488 214.456 23.488C206.776 23.488 200.776 26.176 196.456 31.552C192.136 36.832 189.976 44.704 189.976 55.168C189.976 65.632 192.136 73.552 196.456 78.928C200.776 84.304 206.776 86.992 214.456 86.992Z" fill="white"/>
<path d="M158.832 60.88L140.848 84.944V106H134.256V84.944L116.272 60.88H123.824L137.584 79.504L151.344 60.88H158.832Z" fill="white"/>
<path d="M291.296 106.512C285.28 106.512 280.715 104.955 277.6 101.84C274.485 98.7253 272.928 94.1387 272.928 88.08V60.88H279.456V88.528C279.456 92.6667 280.437 95.8027 282.4 97.936C284.405 100.069 287.371 101.136 291.296 101.136C295.179 101.136 298.123 100.069 300.128 97.936C302.133 95.8027 303.136 92.6667 303.136 88.528V60.88H309.664V88.08C309.664 94.096 308.085 98.6827 304.928 101.84C301.813 104.955 297.269 106.512 291.296 106.512Z" fill="white"/>
</svg>
