<svg width="270" height="127" viewBox="0 0 270 127" fill="none" xmlns="http://www.w3.org/2000/svg">
<path d="M171.248 46V0.879997H200.56V6.192H177.712V20.4H199.28V25.776H177.712V40.688H200.56V46H171.248ZM245.294 46H237.998L230.318 31.536C229.464 30 228.44 28.9333 227.246 28.336C226.094 27.696 224.558 27.376 222.638 27.376H215.214V46H208.686V0.879997H227.886C232.878 0.879997 236.675 1.98933 239.278 4.208C241.923 6.42666 243.246 9.66933 243.246 13.936C243.246 17.392 242.264 20.2293 240.302 22.448C238.382 24.6667 235.63 26.0747 232.046 26.672C234.264 27.3547 236.099 29.0187 237.55 31.664L245.294 46ZM227.118 22.064C230.446 22.064 232.899 21.424 234.478 20.144C236.099 18.8213 236.91 16.7947 236.91 14.064C236.91 11.3333 236.12 9.34933 234.542 8.112C232.963 6.832 230.488 6.192 227.118 6.192H215.15V22.064H227.118Z" fill="white"/>
<path d="M24.64 46.512C20.3733 46.512 16.6613 45.5733 13.504 43.696C10.3893 41.8187 7.97867 39.152 6.272 35.696C4.56533 32.24 3.712 28.1653 3.712 23.472C3.712 18.736 4.544 14.64 6.208 11.184C7.91467 7.68533 10.3467 5.01866 13.504 3.184C16.6613 1.30666 20.3733 0.367996 24.64 0.367996C28.9493 0.367996 32.6827 1.30666 35.84 3.184C38.9973 5.01866 41.408 7.68533 43.072 11.184C44.7787 14.64 45.632 18.7147 45.632 23.408C45.632 28.1013 44.7787 32.1973 43.072 35.696C41.408 39.152 38.9973 41.8187 35.84 43.696C32.6827 45.5733 28.9493 46.512 24.64 46.512ZM24.64 41.136C29.1627 41.136 32.6827 39.6 35.2 36.528C37.7173 33.456 38.976 29.0827 38.976 23.408C38.976 17.7333 37.7173 13.3813 35.2 10.352C32.7253 7.28 29.2053 5.744 24.64 5.744C20.16 5.744 16.6613 7.28 14.144 10.352C11.6693 13.3813 10.432 17.7333 10.432 23.408C10.432 29.0827 11.6693 33.456 14.144 36.528C16.6613 39.6 20.16 41.136 24.64 41.136Z" fill="white"/>
<path d="M149.248 106V60.88H155.84V106H149.248ZM166.311 106V60.88H195.623V66.192H172.775V80.4H194.343V85.776H172.775V100.688H195.623V106H166.311ZM260.777 60.88H267.177L251.305 106H245.865L233.705 71.056L221.417 106H215.977L200.169 60.88H206.825L218.921 96.656L231.401 60.88L236.265 60.944L248.489 96.848L260.777 60.88Z" fill="white"/>
<path d="M136.376 4.47999H163.16L116.936 106H95.912L49.688 4.47999H77.192L106.712 73.024L136.376 4.47999Z" fill="white"/>
</svg>
