<svg width="259" height="127" viewBox="0 0 259 127" fill="none" xmlns="http://www.w3.org/2000/svg">
<path d="M115.64 46.512C111.373 46.512 107.661 45.5733 104.504 43.696C101.389 41.8187 98.9787 39.152 97.272 35.696C95.5653 32.24 94.712 28.1653 94.712 23.472C94.712 18.736 95.544 14.64 97.208 11.184C98.9147 7.68533 101.347 5.01866 104.504 3.184C107.661 1.30666 111.373 0.367996 115.64 0.367996C119.949 0.367996 123.683 1.30666 126.84 3.184C129.997 5.01866 132.408 7.68533 134.072 11.184C135.779 14.64 136.632 18.7147 136.632 23.408C136.632 28.1013 135.779 32.1973 134.072 35.696C132.408 39.152 129.997 41.8187 126.84 43.696C123.683 45.5733 119.949 46.512 115.64 46.512ZM115.64 41.136C120.163 41.136 123.683 39.6 126.2 36.528C128.717 33.456 129.976 29.0827 129.976 23.408C129.976 17.7333 128.717 13.3813 126.2 10.352C123.725 7.28 120.205 5.744 115.64 5.744C111.16 5.744 107.661 7.28 105.144 10.352C102.669 13.3813 101.432 17.7333 101.432 23.408C101.432 29.0827 102.669 33.456 105.144 36.528C107.661 39.6 111.16 41.136 115.64 41.136ZM183.639 0.879997H188.887V46H182.935L182.999 13.36L169.559 38.768H165.079L151.575 13.68L151.639 46H145.687V0.879997H150.999L167.383 32.112L183.639 0.879997ZM199.436 46V0.879997H228.748V6.192H205.9V20.4H227.468V25.776H205.9V40.688H228.748V46H199.436Z" fill="white"/>
<path d="M133.304 106H125.048L102.84 84.752V106H96.248V60.88H102.84V81.424L124.088 60.88H132.216L109.432 82.704L133.304 106ZM137.311 106V60.88H143.903V106H137.311ZM154.373 106V60.88H160.965V100.496H182.853V106H154.373ZM189.373 106V60.88H195.965V100.496H217.853V106H189.373ZM238.22 106.512C234.721 106.512 231.5 106.043 228.556 105.104C225.654 104.165 223.158 102.779 221.068 100.944L223.436 96.08C225.654 97.872 227.937 99.1733 230.284 99.984C232.673 100.752 235.34 101.136 238.284 101.136C241.654 101.136 244.257 100.517 246.092 99.28C247.926 98 248.844 96.208 248.844 93.904C248.844 91.9413 247.99 90.4907 246.284 89.552C244.577 88.5707 241.846 87.6533 238.092 86.8C234.508 86.032 231.564 85.1573 229.26 84.176C226.956 83.1947 225.142 81.872 223.82 80.208C222.54 78.5013 221.9 76.3467 221.9 73.744C221.9 71.0987 222.582 68.7733 223.948 66.768C225.356 64.7627 227.34 63.2053 229.9 62.096C232.46 60.944 235.425 60.368 238.796 60.368C241.953 60.368 244.918 60.8587 247.692 61.84C250.508 62.7787 252.812 64.144 254.604 65.936L252.3 70.8C250.209 69.0933 248.054 67.8347 245.836 67.024C243.66 66.1707 241.334 65.744 238.86 65.744C235.617 65.744 233.057 66.4267 231.18 67.792C229.345 69.1147 228.428 70.9707 228.428 73.36C228.428 75.408 229.238 76.9653 230.86 78.032C232.481 79.056 235.084 79.9947 238.668 80.848C242.422 81.7013 245.452 82.5973 247.756 83.536C250.102 84.432 251.958 85.6907 253.324 87.312C254.732 88.8907 255.436 90.96 255.436 93.52C255.436 96.1227 254.732 98.4053 253.324 100.368C251.958 102.331 249.974 103.845 247.372 104.912C244.812 105.979 241.761 106.512 238.22 106.512Z" fill="white"/>
<path d="M45.936 107.296C38.352 107.296 30.864 106.288 23.472 104.272C16.08 102.256 10.08 99.568 5.472 96.208L13.68 77.488C18.576 80.56 23.808 82.912 29.376 84.544C34.944 86.176 40.56 86.992 46.224 86.992C51.984 86.992 56.352 86.224 59.328 84.688C62.4 83.056 63.936 80.8 63.936 77.92C63.936 75.328 62.544 73.216 59.76 71.584C57.072 69.952 51.888 68.32 44.208 66.688C34.704 64.672 27.264 62.272 21.888 59.488C16.512 56.704 12.72 53.44 10.512 49.696C8.4 45.952 7.344 41.344 7.344 35.872C7.344 29.632 9.072 24.064 12.528 19.168C16.08 14.176 21.024 10.288 27.36 7.504C33.792 4.62399 41.136 3.18399 49.392 3.18399C56.688 3.18399 63.744 4.23999 70.56 6.352C77.472 8.368 82.848 11.008 86.688 14.272L78.624 32.992C69.408 26.656 59.712 23.488 49.536 23.488C44.64 23.488 40.704 24.448 37.728 26.368C34.752 28.192 33.264 30.64 33.264 33.712C33.264 35.536 33.792 37.024 34.848 38.176C35.904 39.328 37.872 40.48 40.752 41.632C43.632 42.688 47.904 43.792 53.568 44.944C62.784 46.96 70.032 49.408 75.312 52.288C80.592 55.072 84.336 58.336 86.544 62.08C88.752 65.824 89.856 70.288 89.856 75.472C89.856 85.456 86.016 93.28 78.336 98.944C70.656 104.512 59.856 107.296 45.936 107.296Z" fill="white"/>
</svg>
